<svg width="312.5" height="312.5" viewBox="0 0 312.5 312.5" class="css-1j8o68f"><defs id="SvgjsDefs6700"></defs><g id="SvgjsG6701" featurekey="rootContainer" transform="matrix(1.5585413392436143,0,0,1.5585413392436143,0,0)" fill="#290cff"><path xmlns="http://www.w3.org/2000/svg" d="M100.254 0C44.974 0 0 44.974 0 100.254s44.974 100.254 100.254 100.254c55.28 0 100.254-44.974 100.254-100.254S155.534 0 100.254 0zm0 195.508C47.731 195.508 5 152.777 5 100.254S47.731 5 100.254 5s95.254 42.73 95.254 95.254-42.731 95.254-95.254 95.254z"></path></g><g id="SvgjsG6702" featurekey="symbolFeature-0" transform="matrix(1.9841006436989115,0,0,1.9841006436989115,106.00132322919978,50.5945456759656)" fill="#ff019a"><path xmlns="http://www.w3.org/2000/svg" d="M17.148,39.523c-0.37,0-0.66-0.291-0.66-0.659c0-0.357,0.29-0.647,0.66-0.647c0.355,0,0.66,0.29,0.66,0.647  C17.807,39.232,17.503,39.523,17.148,39.523L17.148,39.523z M14.905,39.523c-0.37,0-0.66-0.291-0.66-0.659  c0-0.357,0.29-0.647,0.66-0.647c0.356,0,0.659,0.29,0.659,0.647C15.564,39.232,15.261,39.523,14.905,39.523L14.905,39.523z   M12.662,39.523c-0.368,0-0.66-0.291-0.66-0.659c0-0.357,0.292-0.647,0.66-0.647c0.357,0,0.66,0.29,0.66,0.647  C13.322,39.232,13.019,39.523,12.662,39.523L12.662,39.523z M10.419,39.523c-0.369,0-0.66-0.291-0.66-0.659  c0-0.357,0.291-0.647,0.66-0.647c0.357,0,0.66,0.29,0.66,0.647C11.079,39.232,10.776,39.523,10.419,39.523L10.419,39.523z   M8.177,39.523c-0.37,0-0.66-0.291-0.66-0.659c0-0.357,0.29-0.647,0.66-0.647c0.355,0,0.66,0.29,0.66,0.647  C8.837,39.232,8.533,39.523,8.177,39.523L8.177,39.523z M5.935,39.523c-0.37,0-0.66-0.291-0.66-0.659c0-0.357,0.29-0.647,0.66-0.647  c0.355,0,0.66,0.29,0.66,0.647C6.594,39.232,6.29,39.523,5.935,39.523L5.935,39.523z M3.692,39.523c-0.37,0-0.659-0.291-0.659-0.659  c0-0.357,0.29-0.647,0.659-0.647c0.357,0,0.66,0.29,0.66,0.647C4.351,39.232,4.049,39.523,3.692,39.523L3.692,39.523z"></path><path xmlns="http://www.w3.org/2000/svg" d="M17.689,37.333c-0.027,0-0.119-0.013-0.133-0.013c-0.355-0.093-0.58-0.436-0.514-0.792c0.079-0.303,0.342-0.514,0.646-0.514  c0.026,0,0.119,0,0.145,0.013c0.356,0.08,0.581,0.422,0.501,0.778C18.268,37.122,18.005,37.333,17.689,37.333L17.689,37.333z   M15.499,36.844c-0.027,0-0.119,0-0.146-0.013c-0.355-0.08-0.58-0.436-0.501-0.778c0.08-0.316,0.343-0.527,0.647-0.527  c0.026,0,0.119,0.013,0.146,0.013c0.355,0.08,0.58,0.436,0.501,0.792C16.078,36.634,15.816,36.844,15.499,36.844L15.499,36.844z   M13.309,36.37c-0.026,0-0.119-0.014-0.131-0.014c-0.37-0.093-0.581-0.435-0.516-0.79c0.08-0.305,0.344-0.516,0.647-0.516  c0.027,0,0.118,0.014,0.146,0.014c0.355,0.079,0.58,0.422,0.501,0.778C13.89,36.16,13.626,36.37,13.309,36.37L13.309,36.37z   M11.119,35.882c-0.026,0-0.119,0-0.145-0.013c-0.357-0.079-0.581-0.436-0.502-0.778c0.08-0.317,0.344-0.528,0.647-0.528  c0.027,0,0.118,0.014,0.146,0.027c0.171,0.025,0.317,0.131,0.408,0.276c0.093,0.146,0.133,0.33,0.093,0.501  C11.699,35.672,11.423,35.882,11.119,35.882L11.119,35.882z M8.928,35.407c-0.013,0-0.105-0.013-0.118-0.013  c-0.383-0.08-0.607-0.436-0.527-0.792c0.079-0.303,0.343-0.515,0.646-0.515c0.027,0,0.12,0.014,0.146,0.014  c0.356,0.079,0.581,0.435,0.501,0.777C9.51,35.196,9.245,35.407,8.928,35.407L8.928,35.407z M6.74,34.931  c-0.027,0-0.12-0.013-0.146-0.025c-0.171-0.027-0.317-0.133-0.41-0.277C6.093,34.47,6.053,34.3,6.093,34.128  c0.066-0.304,0.343-0.528,0.647-0.528c0.025,0,0.118,0.014,0.144,0.026c0.357,0.08,0.581,0.436,0.501,0.779  C7.32,34.708,7.055,34.931,6.74,34.931L6.74,34.931z M4.55,34.443c-0.027,0-0.119-0.013-0.146-0.013  c-0.355-0.078-0.581-0.436-0.501-0.791c0.066-0.304,0.343-0.515,0.647-0.515c0.025,0,0.118,0.014,0.144,0.014  c0.357,0.079,0.581,0.435,0.501,0.791C5.13,34.219,4.853,34.443,4.55,34.443L4.55,34.443z M2.36,33.969  c-0.027,0-0.118-0.014-0.146-0.014c-0.355-0.092-0.58-0.435-0.501-0.791c0.066-0.303,0.33-0.515,0.646-0.515  c0.026,0,0.119,0.013,0.145,0.013c0.357,0.079,0.581,0.423,0.502,0.778C2.927,33.759,2.662,33.969,2.36,33.969L2.36,33.969z"></path><path xmlns="http://www.w3.org/2000/svg" d="M16.158,34.748c-0.119,0-0.237-0.027-0.343-0.093c-0.304-0.185-0.41-0.594-0.238-0.896c0.186-0.317,0.607-0.423,0.911-0.237  c0.317,0.185,0.423,0.58,0.237,0.896C16.607,34.629,16.383,34.748,16.158,34.748L16.158,34.748z M14.219,33.613  c-0.12,0-0.238-0.026-0.33-0.092c-0.317-0.186-0.423-0.594-0.239-0.898c0.171-0.303,0.594-0.421,0.898-0.236  c0.316,0.184,0.421,0.594,0.237,0.896C14.668,33.494,14.444,33.613,14.219,33.613L14.219,33.613z M12.28,32.479  c-0.119,0-0.237-0.027-0.33-0.093c-0.315-0.185-0.421-0.581-0.237-0.896c0.171-0.305,0.594-0.41,0.896-0.238  c0.159,0.093,0.264,0.238,0.304,0.409c0.053,0.172,0.026,0.343-0.066,0.501C12.728,32.359,12.518,32.479,12.28,32.479L12.28,32.479z   M10.341,31.357c-0.119,0-0.224-0.04-0.33-0.093c-0.316-0.185-0.422-0.593-0.237-0.91c0.171-0.304,0.607-0.409,0.896-0.236  c0.159,0.091,0.264,0.236,0.317,0.408c0.04,0.171,0.013,0.343-0.08,0.501C10.802,31.225,10.577,31.357,10.341,31.357L10.341,31.357z   M8.402,30.223c-0.119,0-0.224-0.04-0.33-0.093c-0.146-0.093-0.264-0.237-0.304-0.41c-0.039-0.171-0.013-0.342,0.066-0.501  c0.172-0.29,0.594-0.408,0.911-0.224c0.146,0.08,0.251,0.224,0.304,0.396c0.039,0.172,0.013,0.356-0.067,0.502  C8.863,30.091,8.639,30.223,8.402,30.223L8.402,30.223z M6.476,29.089c-0.119,0-0.238-0.027-0.344-0.093  c-0.144-0.079-0.25-0.225-0.303-0.396c-0.04-0.172-0.013-0.355,0.079-0.501c0.173-0.305,0.594-0.423,0.898-0.237  c0.145,0.091,0.264,0.237,0.303,0.408c0.04,0.171,0.027,0.343-0.065,0.488C6.924,28.956,6.713,29.089,6.476,29.089L6.476,29.089z   M4.536,27.953c-0.119,0-0.237-0.025-0.343-0.091c-0.303-0.186-0.409-0.581-0.224-0.898c0.171-0.303,0.594-0.421,0.896-0.236  c0.159,0.093,0.264,0.236,0.304,0.408c0.053,0.171,0.025,0.344-0.066,0.501C4.985,27.835,4.774,27.953,4.536,27.953L4.536,27.953z   M2.597,26.833c-0.119,0-0.224-0.04-0.33-0.093c-0.158-0.093-0.264-0.237-0.303-0.408C1.911,26.16,1.937,25.987,2.03,25.83  c0.171-0.291,0.594-0.409,0.896-0.238c0.317,0.186,0.423,0.595,0.237,0.911C3.045,26.7,2.834,26.833,2.597,26.833L2.597,26.833z   M0.658,25.698c-0.119,0-0.224-0.04-0.33-0.092c-0.317-0.186-0.423-0.581-0.237-0.897c0.185-0.317,0.593-0.422,0.897-0.25  c0.317,0.196,0.422,0.592,0.25,0.909C1.106,25.566,0.895,25.698,0.658,25.698L0.658,25.698z"></path><path xmlns="http://www.w3.org/2000/svg" d="M19.509,35.236c-0.198,0-0.382-0.08-0.501-0.225c-0.238-0.291-0.199-0.699,0.079-0.937c0.277-0.224,0.699-0.186,0.923,0.079  c0.237,0.276,0.199,0.699-0.079,0.937C19.812,35.183,19.668,35.236,19.509,35.236L19.509,35.236z M18.072,33.521  c-0.199,0-0.383-0.093-0.501-0.238c-0.12-0.132-0.172-0.303-0.158-0.488c0.013-0.172,0.091-0.33,0.237-0.448  c0.264-0.225,0.7-0.185,0.924,0.093c0.237,0.277,0.197,0.686-0.08,0.924C18.374,33.469,18.216,33.521,18.072,33.521L18.072,33.521z   M16.634,31.793c-0.198,0-0.382-0.079-0.502-0.237c-0.237-0.277-0.197-0.687,0.067-0.924c0.277-0.224,0.713-0.185,0.937,0.079  c0.237,0.291,0.197,0.699-0.08,0.923C16.936,31.74,16.791,31.793,16.634,31.793L16.634,31.793z M15.195,30.078  c-0.197,0-0.382-0.093-0.501-0.237c-0.237-0.277-0.197-0.699,0.08-0.924c0.277-0.238,0.698-0.186,0.923,0.079  c0.12,0.133,0.172,0.304,0.158,0.475c-0.026,0.185-0.105,0.343-0.237,0.449C15.499,30.025,15.353,30.078,15.195,30.078  L15.195,30.078z M13.757,28.349c-0.197,0-0.383-0.079-0.501-0.225c-0.237-0.29-0.198-0.698,0.08-0.937  c0.277-0.225,0.698-0.185,0.922,0.08c0.238,0.276,0.199,0.698-0.079,0.937C14.061,28.296,13.915,28.349,13.757,28.349L13.757,28.349  z M12.319,26.635c-0.198,0-0.382-0.092-0.501-0.237c-0.119-0.132-0.171-0.304-0.158-0.488c0.013-0.171,0.105-0.33,0.237-0.448  c0.264-0.211,0.7-0.185,0.924,0.093c0.237,0.276,0.198,0.698-0.079,0.922C12.623,26.582,12.478,26.635,12.319,26.635L12.319,26.635z   M10.882,24.907c-0.198,0-0.383-0.08-0.501-0.238c-0.238-0.277-0.199-0.686,0.079-0.923c0.277-0.224,0.699-0.186,0.923,0.079  c0.119,0.146,0.171,0.316,0.159,0.488c-0.013,0.171-0.106,0.329-0.237,0.448C11.184,24.854,11.04,24.907,10.882,24.907  L10.882,24.907z M9.444,23.192c-0.199,0-0.383-0.08-0.501-0.238c-0.238-0.277-0.198-0.686,0.066-0.924  c0.29-0.237,0.712-0.185,0.937,0.08c0.237,0.276,0.197,0.686-0.08,0.924C9.747,23.139,9.602,23.192,9.444,23.192L9.444,23.192z   M8.006,21.476c-0.198,0-0.382-0.092-0.515-0.25c-0.224-0.265-0.184-0.687,0.093-0.924c0.264-0.225,0.699-0.185,0.924,0.078  c0.237,0.278,0.197,0.7-0.08,0.938C8.309,21.41,8.163,21.476,8.006,21.476L8.006,21.476z M6.567,19.749  c-0.197,0-0.382-0.093-0.501-0.237c-0.119-0.133-0.171-0.304-0.159-0.476c0.014-0.184,0.106-0.343,0.239-0.448  c0.264-0.237,0.698-0.198,0.923,0.079c0.119,0.132,0.171,0.304,0.157,0.475c-0.013,0.185-0.105,0.343-0.237,0.448  C6.871,19.696,6.726,19.749,6.567,19.749L6.567,19.749z M5.13,18.021c-0.197,0-0.383-0.08-0.501-0.226  c-0.237-0.277-0.197-0.698,0.08-0.937c0.277-0.225,0.698-0.185,0.922,0.08c0.238,0.289,0.198,0.699-0.079,0.937  C5.433,17.969,5.288,18.021,5.13,18.021L5.13,18.021z M3.692,16.305c-0.198,0-0.382-0.092-0.501-0.237  c-0.119-0.132-0.171-0.304-0.158-0.476c0.013-0.184,0.105-0.343,0.237-0.448c0.277-0.224,0.7-0.197,0.924,0.08  c0.238,0.277,0.211,0.685-0.079,0.922C3.996,16.252,3.85,16.305,3.692,16.305L3.692,16.305z"></path><path xmlns="http://www.w3.org/2000/svg" d="M20.446,32.439c-0.264,0-0.501-0.158-0.607-0.396c-0.08-0.172-0.08-0.344-0.013-0.516c0.066-0.158,0.197-0.29,0.355-0.355  c0.304-0.133,0.726,0.013,0.858,0.343c0.079,0.158,0.079,0.343,0.013,0.501c-0.066,0.172-0.185,0.304-0.357,0.37  C20.63,32.412,20.524,32.439,20.446,32.439L20.446,32.439z M19.549,30.381c-0.264,0-0.502-0.157-0.607-0.396  c-0.067-0.158-0.067-0.343-0.014-0.501c0.066-0.172,0.199-0.303,0.357-0.37c0.317-0.131,0.725,0.015,0.871,0.344  c0.144,0.33-0.015,0.713-0.344,0.87C19.773,30.342,19.602,30.381,19.549,30.381L19.549,30.381z M18.651,28.323  c-0.264,0-0.501-0.158-0.607-0.396c-0.144-0.33,0.013-0.726,0.343-0.871c0.053-0.013,0.226-0.053,0.264-0.053  c0.264,0,0.501,0.159,0.607,0.396c0.065,0.159,0.08,0.343,0.014,0.501c-0.067,0.172-0.199,0.292-0.357,0.37  C18.837,28.296,18.744,28.323,18.651,28.323L18.651,28.323z M17.767,26.265c-0.264,0-0.501-0.158-0.607-0.396  c-0.146-0.343,0.013-0.726,0.343-0.871c0.317-0.144,0.727,0.027,0.858,0.345c0.079,0.158,0.079,0.342,0.013,0.501  c-0.066,0.171-0.185,0.303-0.356,0.369C17.939,26.252,17.847,26.265,17.767,26.265L17.767,26.265z M16.871,24.207  c-0.264,0-0.501-0.158-0.607-0.396c-0.066-0.158-0.08-0.343-0.013-0.501c0.065-0.171,0.197-0.304,0.368-0.369  c0.277-0.132,0.712,0.013,0.858,0.342c0.066,0.159,0.066,0.345,0.013,0.502c-0.066,0.172-0.197,0.304-0.355,0.369  C17.055,24.194,16.964,24.207,16.871,24.207L16.871,24.207z M15.974,22.15c-0.264,0-0.502-0.159-0.608-0.397  c-0.065-0.157-0.065-0.343,0-0.501c0.053-0.171,0.186-0.29,0.344-0.368c0.33-0.133,0.738,0.025,0.871,0.343  c0.066,0.158,0.079,0.343,0.013,0.501c-0.065,0.171-0.186,0.29-0.356,0.37C16.158,22.135,16.066,22.15,15.974,22.15L15.974,22.15z   M15.089,20.092c-0.263,0-0.501-0.159-0.607-0.396c-0.144-0.33,0.014-0.726,0.344-0.871c0.039-0.013,0.21-0.053,0.263-0.053  c0.264,0,0.502,0.158,0.594,0.396c0.08,0.158,0.08,0.344,0.013,0.502c-0.066,0.172-0.185,0.303-0.343,0.369  C15.261,20.078,15.182,20.092,15.089,20.092L15.089,20.092z M14.193,18.034c-0.264,0-0.501-0.158-0.607-0.396  c-0.066-0.158-0.066-0.344-0.013-0.503c0.065-0.171,0.197-0.289,0.355-0.368c0.04-0.014,0.224-0.053,0.264-0.053  c0.264,0,0.501,0.158,0.606,0.408c0.066,0.146,0.066,0.33,0.013,0.488c-0.066,0.172-0.197,0.305-0.355,0.37  C14.377,18.021,14.285,18.034,14.193,18.034L14.193,18.034z M13.296,15.975c-0.264,0-0.501-0.159-0.606-0.396  c-0.066-0.159-0.066-0.343,0-0.501c0.065-0.171,0.184-0.29,0.355-0.37c0.304-0.131,0.725,0.027,0.858,0.344  c0.079,0.157,0.079,0.342,0.013,0.501c-0.065,0.171-0.184,0.303-0.355,0.369C13.48,15.962,13.387,15.975,13.296,15.975  L13.296,15.975z"></path><path xmlns="http://www.w3.org/2000/svg" d="M22.094,34.247c-0.027,0-0.133,0-0.146-0.015c-0.368-0.092-0.58-0.434-0.501-0.791c0.065-0.303,0.33-0.514,0.646-0.514  c0.026,0,0.119,0.013,0.146,0.025c0.355,0.08,0.58,0.436,0.487,0.793C22.661,34.035,22.397,34.247,22.094,34.247L22.094,34.247z   M22.595,32.069c-0.025,0-0.118-0.013-0.146-0.013c-0.355-0.093-0.58-0.448-0.501-0.805c0.08-0.29,0.343-0.502,0.646-0.502  c0.026,0,0.132,0.014,0.146,0.014c0.355,0.079,0.58,0.436,0.501,0.792C23.177,31.858,22.913,32.069,22.595,32.069L22.595,32.069z   M23.11,29.88c-0.026,0-0.119-0.014-0.144-0.014c-0.357-0.078-0.581-0.435-0.501-0.79c0.066-0.305,0.33-0.516,0.646-0.516  c0.027,0,0.12,0.014,0.146,0.027c0.171,0.025,0.317,0.131,0.409,0.289c0.093,0.146,0.12,0.317,0.08,0.488  C23.678,29.668,23.414,29.88,23.11,29.88L23.11,29.88z"></path><path xmlns="http://www.w3.org/2000/svg" d="M35.994,40.948H50.4c0,0-0.937-10.93-6.626-17.975c-1.354-2.117-5.578-3.429-8.207-0.68  c0.027-0.115,0.053-0.232,0.069-0.335c0.213-1.298-0.807-3.598-1.853-5.576l1.408-1.103l-1.676-2.14l-1.074,0.842  c-0.208-0.355-0.384-0.657-0.501-0.87c-0.869-1.562-1.817-2.498-4.543-2.295c-5.577,0.416-7.517,4.327-7.958,5.888  c-0.581,2.051,0.805,3.896,0.805,3.896l1.228,1.358l3.959-3.101l1.675,2.14l-3.809,2.982l4.794,5.307  c1.81,0.42,3.319-0.329,4.508-1.51c-0.933,2.405-1.739,5.094-2.275,7.261l1.906,2.859c0.202,0.303,0.12,0.713-0.183,0.915  c-0.112,0.074-0.239,0.11-0.366,0.11c-0.212,0-0.421-0.103-0.549-0.294l-1.807-2.711c-2.122,0.009-7.779,0.033-7.78,0.033  c-1.365,0-2.473,1.104-2.476,2.471c-0.002,1.368,1.104,2.478,2.471,2.48l12.897,0.046l5.828-13.126  c0.163-0.354,0.581-0.51,0.937-0.35c0.356,0.163,0.513,0.583,0.35,0.938L35.994,40.948z M29.714,15.786  c-0.428-0.04-0.742-0.417-0.701-0.845c0.039-0.428,0.418-0.742,0.845-0.701c0.426,0.039,0.742,0.417,0.701,0.845  C30.52,15.512,30.138,15.826,29.714,15.786z"></path></g><g id="SvgjsG6703" featurekey="nameFeature-0" transform="matrix(1.0670740270394565,0,0,1.0670740270394565,54.475896743296126,139.80557828513474)" fill="#ffffff"><path d="M29.714 11.428999999999998 l6.8571 0 l0 3.4286 l-6.9714 25.143 l-6.8571 0 l-3.7143 -13.486 l-3.7143 13.486 l-6.8571 0 l-7.0286 -25.143 l0 -3.4286 l6.8571 0 l4.1714 16.914 l4.1143 -16.914 l4.8571 0 l4.1714 16.914 z M66.00014285714286 17.714 l-16.857 0 l0 4.8571 l14.571 0 l0 6.2857 l-14.571 0 l0 4.8571 l16.857 0 l0 6.2857 l-20 0 l-4.2857 -4.2857 l0 -24.286 l24.286 0 l0 6.2857 z M72.57138571428571 35.7143 l0 -24.286 l7.4286 0 l0 22.286 l15.429 0 l0 6.2857 l-18.571 0 z M121.4282857142857 11.428999999999998 l4.2857 4.2857 l0 20 l-4.2857 4.2857 l-20.857 0 l0 -28.571 l20.857 0 z M118.2852857142857 33.7143 l0 -16 l-10.286 0 l0 16 l10.286 0 z M156.57157142857142 17.714 l-16.857 0 l0 4.8571 l14.571 0 l0 6.2857 l-14.571 0 l0 4.8571 l16.857 0 l0 6.2857 l-20 0 l-4.2857 -4.2857 l0 -24.286 l24.286 0 l0 6.2857 z M188.85671428571428 15.713999999999999 l0 10 l-4.2857 4.2857 l4.2857 6.5714 l0 3.4286 l-6.8571 0 l-5.9429 -9.7143 l-5.4857 0 l0 9.7143 l-7.4286 0 l0 -28.571 l21.429 0 z M181.42871428571428 24 l0 -6.2857 l-10.857 0 l0 6.2857 l10.857 0 z"></path></g><g id="SvgjsG6704" featurekey="nameFeature-1" transform="matrix(1.6666800182140538,0,0,1.6666800182140538,51.23679255395646,172.95267296071324)" fill="#ffffff"><path d="M19.429 17.714 l-9.1429 0 l0 16 l9.1429 0 l2.2857 -2.2857 l5.4286 0 l0 4.2857 l-4.2857 4.2857 l-15.714 0 l-4.2857 -4.2857 l0 -20 l4.2857 -4.2857 l15.714 0 l4.2857 4.2857 l0 4.2857 l-5.4286 0 z M54.57114285714286 11.428999999999998 l4.2857 4.2857 l0 20 l-4.2857 4.2857 l-16.571 0 l-4.2857 -4.2857 l0 -20 l4.2857 -4.2857 l16.571 0 z M51.42814285714286 33.7143 l0 -16 l-10.286 0 l0 16 l10.286 0 z M91.14242857142857 15.713999999999999 l0 10 l-4.2857 4.2857 l4.2857 6.5714 l0 3.4286 l-6.8571 0 l-5.9429 -9.7143 l-5.4857 0 l0 9.7143 l-7.4286 0 l0 -28.571 l21.429 0 z M83.71442857142857 24 l0 -6.2857 l-10.857 0 l0 6.2857 l10.857 0 z M97.71424285714286 40 l0 -28.571 l20.857 0 l4.2857 4.2857 l0 12 l-4.2857 4.2857 l-13.429 0 l0 8 l-7.4286 0 z M105.14314285714286 25.714 l10.286 0 l0 -8 l-10.286 0 l0 8 z"></path></g></svg>